<svg version="1" xmlns="http://www.w3.org/2000/svg" width="666.667" height="666.667" viewBox="0 0 500.000000 500.000000"><path d="M0 250v250h500V0H0v250zM282 73.1c61 11.2 112.7 54 135.1 111.8 7.3 19 10.9 36.9 11.6 59.1.7 20-.6 32.7-5.2 50.5-15.1 59-59.2 106-118 125.9-16.5 5.6-29.4 7.7-51 8.3-22.5.6-36-1-55-6.5C143.6 406.1 98 362.3 79.6 307c-25.7-77.3 2.6-160.4 70.2-206.4 24.1-16.4 51.4-25.9 86.2-30 8.3-1 35 .4 46 2.5z"/><path d="M230 81.1c-64.7 7.4-120.8 53-141.4 115-6.9 20.4-8 27.8-8 52.4-.1 18.9.2 23.5 2.2 33.1 8.6 43 31.4 78.8 66.8 105.4l7.9 5.9.3-77.2c.1-42.5 0-77.8-.3-78.5-.2-.6-1.2-1.2-2.2-1.2-3.6 0-13.9-5.8-19.5-10.9-10.7-9.8-16.3-25.8-13.8-39.9 6.2-35.8 48.7-50.5 75.4-26.1l5.4 4.9 7.3-3.4c15-6.9 20.7-8.1 38.4-8.1 18.2.1 25.9 1.7 39.2 8l7.4 3.6 5.2-4.7c19.2-17.3 47.6-16.3 64.7 2.4 15.6 16.9 15.9 42.3.9 60.5-4.1 5-14.3 11.5-20.8 13.3l-5.6 1.6.3 77.6c.1 42.7.5 77.8.7 78 1.1 1.2 18.3-12.6 29-23.3 14.7-14.7 23.4-26.7 32.5-45 17.1-34.6 21.8-71.2 13.9-109.3-13-63.3-62.3-114.6-125.2-130.2-19.6-4.8-40.7-6.2-60.7-3.9z"/><path d="M160.2 157.1c-10.9 1.8-21 9.7-25.8 20.2-2.5 5.4-2.9 7.4-2.9 15.2 0 7.9.4 9.7 2.9 14.9 3.6 7.4 9.5 13.4 16.6 16.9 6.7 3.4 9 3.5 9 .4 0-4.7 6.9-21.9 12.1-30.2 3.2-5.1 8.7-11.9 13.7-16.7 4.5-4.4 8.2-8.3 8.1-8.7-.2-1.7-8.6-7.6-13.7-9.6-7.1-2.8-13.1-3.6-20-2.4zM324 157.4c-7.1 1.6-12.6 4.5-16.9 8.9l-3.3 3.5 7.1 6.8c12.4 11.6 22.9 29.8 26.2 45.5 1.1 5 1.2 5.1 4.1 4.5 5.5-1.1 10.3-4 15.9-9.6 7.1-7 10-14.2 10-24.5 0-10.7-2.9-17.5-10.5-25.1-9.3-9.1-20.9-12.7-32.6-10zM238.5 162c-14.9 2.3-32 10-42.2 19-11.7 10.3-19.5 22-24.7 37.3l-3.1 9.2-.3 85.8-.3 85.8 9.3 4.4c45.8 21.7 98.4 21.6 145.1-.2l7.7-3.6v-81.6c0-52.3-.4-83.9-1.1-88.1-6.1-38.1-37.1-66.1-75.5-68.3-4.9-.3-11.6-.2-14.9.3zm-18.8 36.9c3.2 4.7 3.2 12.5 0 17.2-1.2 1.9-3.1 3.5-4 3.7-5.6 1.1-10-8.4-7.8-16.7 2.3-8.8 7.5-10.6 11.8-4.2zm65.8-3.3c4.5 1.8 6.3 14.6 2.9 20.4-4.8 8-12.5 2.9-12.6-8.3-.1-9.1 4-14.2 9.7-12.1zM262 229.4c17.6 3.7 33.8 16.3 42 32.6 4.5 8.9 6.4 17.3 6.3 28.5 0 17.1-6.3 31.6-19.1 43.6-12 11.4-25.5 16.9-41.7 17.1-14.4.2-25.1-3.2-37.1-11.7-20.9-14.9-30.4-44.2-22.4-68.5 4.9-14.6 16.8-28.9 29.9-35.9 12.2-6.5 28.1-8.6 42.1-5.7z"/><path d="M241.1 238c-15.8 2.3-31.2 13.5-38.6 28-5.5 10.8-7.1 25.5-4 36.9 3.8 14.5 14.4 27.3 27.6 33.6 45.1 21.3 91-25.4 69.2-70.4-1.4-2.9-5.5-8.5-9.1-12.3-7.7-8.1-18.6-14-29.2-15.7-7.2-1.2-8.1-1.2-15.9-.1zm29.7 30c1.8 1.1 3.7 3.2 4.3 4.7 2.1 5.5.5 8.4-11 19.6-14.9 14.7-16.1 14.6-31.9-1.7-8.4-8.7-9.2-9.8-9.2-13.4 0-4.3 2.8-8.8 6.4-10.2 1.1-.5 10.2-.9 20.1-.9 16.3-.1 18.3.1 21.3 1.9zm-39 45.6c6.7 3.3 15.4 4.5 23.7 3.3 7.8-1.1 11.9-2.7 16.1-6.2 3.9-3.3 5.9-3.4 7.9-.3 2 3 1 5.4-4 9.1-8.9 6.9-24.9 9.3-39.4 5.9-10.8-2.4-20.2-9.4-18.5-13.8 1-2.7 4.6-3.7 6.9-2 1.1.8 4.4 2.6 7.3 4z"/><path d="M240.3 284.7l8.7 8.8 8.7-8.8 8.8-8.7h-35l8.8 8.7z"/></svg>